<svg xmlns="http://www.w3.org/2000/svg" viewBox="144 125 974 980" role="img" aria-label="SAFEPOW"><path fill="#01352E" fill-rule="evenodd" d="M 540.9 128.3 C 539.5 130.1, 533.2 138.5, 527 147 C 520.8 155.5, 512.7 166.6, 509 171.5 C 505.3 176.4, 500.5 183.2, 498.2 186.5 C 495.9 189.8, 489.7 198.7, 484.3 206.2 C 478.9 213.8, 465.7 232.4, 455 247.5 C 435.7 274.7, 430.2 282.6, 410.1 311 C 404.5 319, 397 329.6, 393.5 334.5 C 390 339.4, 384.2 347.6, 380.7 352.5 C 377.2 357.4, 370.6 366.8, 365.9 373.3 C 361.3 379.8, 355.2 388.4, 352.4 392.3 C 349.7 396.3, 339.1 411, 329 425 C 318.9 439, 308 454.3, 304.8 458.9 C 298.6 467.7, 226.8 568.1, 219.3 578.5 C 186.1 624.4, 174.8 640.1, 165.5 653 C 159.4 661.4, 152.1 671.5, 149.3 675.4 C 146.4 679.3, 144.1 682.7, 144.1 683 C 144.1 683.3, 152.5 690.3, 162.8 698.5 C 198.5 727.2, 213.7 739.5, 242 762.8 C 281.8 795.4, 348.5 850.7, 353.9 855.6 C 356.4 857.9, 361.2 861.9, 364.6 864.6 C 371.2 869.9, 383.4 880.1, 436.9 925.3 C 446.6 933.5, 456.5 941.8, 459 943.8 C 461.5 945.8, 470.7 953.6, 479.5 961 C 488.3 968.5, 498.2 976.8, 501.6 979.5 C 512.3 988.3, 526.2 1000.1, 547.5 1018.5 C 558.9 1028.4, 570.2 1038.1, 572.5 1040 C 574.8 1041.9, 583.2 1049.1, 591.1 1056 C 599 1062.8, 615 1076.7, 626.7 1086.7 L 647.9 1104.9 657.7 1091.2 C 663 1083.7, 671.7 1071.7, 677 1064.5 C 682.3 1057.3, 695.1 1039.8, 705.4 1025.5 C 715.8 1011.2, 726.2 997, 728.5 994 C 730.8 991, 738.7 980.2, 746 970 C 753.3 959.8, 761.7 948.4, 764.5 944.5 C 767.4 940.6, 774.6 930.8, 780.5 922.5 C 786.5 914.3, 794.8 902.8, 799 897 C 808.7 883.7, 836.7 844.9, 840.6 839.3 C 842.2 837.1, 850 826.3, 857.9 815.3 C 873.7 793.6, 883.7 779.8, 890.3 770.5 C 892.7 767.2, 900.7 756.2, 908.1 746 C 924.1 724.1, 925.3 722.4, 948 690.9 C 979.9 646.6, 1000 618, 1000 616.9 C 1000 616.2, 986.2 607.3, 944.5 581.5 C 924.1 568.8, 909.5 559.7, 904.2 556.3 C 897.3 551.9, 828.6 509.5, 802 493.3 C 790.7 486.4, 776.5 477.7, 770.5 474 C 764.5 470.3, 741 456.3, 718.5 442.8 C 696 429.4, 666.7 411.9, 653.5 404 C 640.3 396.1, 617.5 382.6, 602.8 373.9 L 576.1 358.2 561.4 379.4 C 553.3 391, 543.4 405.2, 539.3 411 C 535.2 416.8, 525.1 431.2, 516.8 443 C 492.6 477.5, 464.3 517.3, 456 528.5 C 452.8 532.9, 436.2 556.2, 409 594.5 C 390.6 620.6, 376.5 641, 376.5 641.9 C 376.5 642.8, 382.6 647.4, 408.5 666 C 415.6 671.1, 424.9 677.9, 429 681 C 433.1 684.1, 449.1 695.8, 464.5 707 C 520.4 747.7, 614.8 817.6, 619.1 821.6 L 621.7 824 623.2 822.3 C 624.1 821.3, 631 811.7, 638.7 801 C 646.4 790.3, 667.4 761, 685.5 736 C 703.6 711, 724.2 682.4, 731.3 672.5 C 738.4 662.6, 744.9 653.7, 745.8 652.7 C 746.6 651.8, 747.1 650.8, 746.9 650.6 C 745.9 649.7, 686.1 614.3, 673.6 607.1 L 669.7 604.9 667.2 608 C 665.8 609.8, 658.4 620.3, 650.7 631.4 C 643 642.4, 633.3 656.4, 629.1 662.3 C 620.8 674.2, 613.2 685, 606.2 695 C 603.7 698.6, 601.5 701.7, 601.4 701.9 C 601.1 702.2, 567.7 680.5, 518.5 647.8 L 489.5 628.5 489.6 626.8 C 489.7 625.9, 492.4 621.4, 495.7 616.8 C 499 612.3, 512.5 593.4, 525.7 575 C 538.9 556.6, 553.2 536.5, 557.5 530.5 C 565.3 519.7, 568 515.9, 587.4 489 C 592.8 481.6, 597.5 474.9, 598 474.1 L 598.8 472.6 601.7 473.9 C 608.1 476.8, 648.2 500.4, 693.5 528 C 702.3 533.4, 713.8 540.3, 719 543.5 C 729.6 549.9, 771.2 575.6, 783.5 583.3 C 840.2 618.8, 864.3 634, 864.8 634.5 C 865.2 634.9, 854.9 649.8, 838.4 672.5 C 825.6 690.3, 823.5 693.1, 813.6 706.9 C 809.8 712.2, 805 718.8, 803 721.5 C 800.9 724.3, 789.7 739.8, 777.9 756 C 759 782.1, 730.2 821.3, 720.5 834 C 718.6 836.5, 712.9 844.1, 707.8 851 C 702.6 857.9, 696.2 866.4, 693.4 870 C 678.2 889.6, 656.6 917.8, 649.6 927 C 638.1 942.2, 625.8 958, 625.3 958 C 625.1 958, 610 946, 591.7 931.3 C 544.7 893.5, 536.3 886.8, 520.5 874.5 C 512.8 868.5, 496.8 855.9, 485 846.5 C 473.2 837.1, 457.6 824.8, 450.5 819.2 C 443.4 813.6, 425.1 799.3, 410 787.4 C 394.9 775.5, 377.8 762.1, 372.1 757.7 C 366.4 753.2, 358.7 747, 355 744 C 351.3 741, 334.6 727.7, 318 714.5 C 270.1 676.6, 268 674.9, 268.1 673.7 C 268.1 673, 275.7 661.3, 285 647.5 C 294.3 633.8, 359.4 536.3, 429.6 431 C 499.9 325.7, 557.6 239.2, 558 238.8 C 558.5 238.1, 572.2 245.6, 585.5 253.7 C 588.3 255.4, 602.9 264.1, 618 273 C 633.1 281.9, 648.9 291.2, 653 293.8 C 657.1 296.3, 673.3 306.1, 689 315.5 C 717.5 332.7, 779.6 370.5, 832 402.5 C 836.7 405.3, 846.8 411.5, 854.5 416.2 C 881.3 432.6, 894.6 440.7, 914.5 453 C 925.5 459.8, 944.4 471.4, 956.5 478.8 C 986.1 497, 1010.4 512.1, 1041.2 531.4 C 1062.3 544.6, 1060.5 544.2, 1065.6 537.5 C 1087.4 508.8, 1098.3 494.3, 1110.3 478.3 L 1117.9 468.2 1102.2 458.2 C 1093.6 452.8, 1081.8 445.4, 1076 441.8 C 1038.1 418.5, 1033.6 415.7, 983 385 C 967.3 375.5, 949.5 364.7, 943.5 361 C 930.5 353, 858.1 309.7, 833 295 C 823.4 289.3, 812.4 282.8, 808.5 280.5 C 804.6 278.2, 793.2 271.4, 783 265.5 C 772.8 259.6, 759.8 251.9, 754 248.5 C 736.2 237.9, 717.2 226.7, 700.5 217 C 667.4 197.7, 655.2 190.5, 646 185 C 640.8 181.8, 627.3 173.8, 616 167.3 C 604.7 160.7, 588.1 150.9, 579 145.5 C 558.1 133, 544.2 125, 543.8 125.1 C 543.6 125.1, 542.3 126.6, 540.9 128.3"/></svg>
